<svg xmlns="http://www.w3.org/2000/svg" xmlns:xlink="http://www.w3.org/1999/xlink" id="Ebene_1" x="0px" y="0px" viewBox="0 0 200 200" style="enable-background:new 0 0 200 200;" xml:space="preserve"><style type="text/css">	.st0{fill:#FFEC00;}	.st1{fill:#030303;}	.st2{fill:#1A1A18;}	.st3{fill:none;stroke:#020203;stroke-width:0.938;stroke-linejoin:round;stroke-miterlimit:10;}	.st4{fill:none;stroke:#020203;stroke-width:0.75;stroke-linejoin:round;stroke-miterlimit:10;}</style><polygon class="st0" points="51.8,23.2 91,23.2 108.1,52.9 140.1,0.1 180,0 127.2,85.6 169.8,159.3 131.7,159.3 107.2,118.2  56.5,199.8 20.4,200 88.7,86.5 "></polygon><g>	<polygon class="st1" points="87.5,91.4 99.8,91.4 105.1,100.8 115.2,84 127.7,84 111.1,111.2 124.5,134.6 112.5,134.6 104.9,121.6   88.9,147.5 77.6,147.6 99,111.5  "></polygon>	<polygon class="st2" points="68.8,104.9 81.6,126.8 67.6,126.8 74.5,115.9 62.7,115.9 52.2,134.1 97.1,134.1 80.4,104.9  "></polygon>	<polygon class="st3" points="68.8,104.8 81.6,126.8 67.6,126.8 74.5,115.8 62.6,115.8 52.1,134.1 97.1,134.1 80.4,104.8  "></polygon>	<path class="st2" d="M48.5,105c-3.3,0-4.3-0.1-12,0c-32,1-26,28.8-0.5,29.1l12.5,0c0,0,0-3.9,0.1-7.9l-12.3,0  c-8.1-0.1-10.4-4.3-10.2-6.7c0.1-3.9,3.8-7.5,11-7.9h11.4L48.5,105z"></path>	<path class="st4" d="M48.5,105c-3.3,0-4.4-0.1-12.1,0c-32,1-26.1,28.9-0.5,29.2l12.6,0c0,0,0-4,0.1-7.9l-12.3,0  c-8.1-0.1-10.4-4.3-10.3-6.8c0.1-4,3.8-7.5,11-7.9h11.4L48.5,105z"></path>	<path class="st2" d="M130,130.3h1h1h1h1v-3.1v-3.1V121v-3.1v-3.1v-3.1v-3.1h-1h-1h-1h-1v3.1v3.1v3.1v3.1v3.1v3.1V130.3z   M126.1,104.7h1.5h1.5h1.5h1.5c0,0,1.2,0,1.5,0c0.4,0,0.5,0,0.8,0.1c0.2,0,0.5,0.1,0.7,0.2c0.2,0.1,0.4,0.2,0.7,0.3  c0.2,0.1,0.4,0.3,0.6,0.5c0.2,0.2,0.3,0.4,0.5,0.6c0.1,0.2,0.3,0.4,0.3,0.7c0.1,0.2,0.2,0.5,0.2,0.7c0,0.2,0,0.1,0.1,0.8  c0,0.6,0,3.1,0,3.1v3.1v3.1v3.1v3.1v3.1c0,0,0,2.5,0,3.1c0,0.6,0,0.5-0.1,0.8c0,0.2-0.1,0.5-0.2,0.7c-0.1,0.2-0.2,0.4-0.3,0.6  c-0.1,0.2-0.3,0.4-0.5,0.6c-0.2,0.2-0.4,0.3-0.6,0.5c-0.2,0.1-0.4,0.3-0.7,0.4c-0.2,0.1-0.5,0.2-0.7,0.2c-0.2,0-0.5,0.1-0.8,0.1  c-0.3,0-1,0-1,0h-1h-1h-1v1.4v1.4v1.4v1.4v1.5h-1h-1h-1h-1v-4.1v-4.1v-4.1V125V121v-4.1v-4.1v-4.1V104.7z"></path>	<path class="st2" d="M145.3,117.5h1h1h1h1v-1.8v-1.8v-1.8v-1.8v-1.8h-1h-1h-1h-1v1.8v1.8v1.8v1.8V117.5z M141.5,110.1  c0-0.6,0-0.4,0-0.6c0-0.2,0.1-0.4,0.1-0.6c0-0.2,0.1-0.4,0.1-0.5c0.1-0.2,0.1-0.3,0.2-0.5c0.1-0.2,0.2-0.3,0.2-0.5  c0.1-0.2,0.2-0.3,0.3-0.5c0.1-0.2,0.2-0.3,0.3-0.4c0.1-0.1,0.2-0.3,0.4-0.4c0.1-0.1,0.3-0.2,0.4-0.4c0.1-0.1,0.3-0.2,0.4-0.3  c0.2-0.1,0.3-0.2,0.5-0.3c0.2-0.1,0.3-0.2,0.5-0.2c0.2-0.1,0.3-0.1,0.5-0.2c0.2-0.1,0.4-0.1,0.5-0.1c0.2,0,0.4-0.1,0.6-0.1  c0.2,0,0.4,0,0.6,0c0.2,0,0.4,0,0.6,0c0.2,0,0.4,0.1,0.6,0.1c0.2,0,0.4,0.1,0.6,0.1c0.2,0.1,0.4,0.1,0.5,0.2  c0.2,0.1,0.3,0.2,0.5,0.2c0.2,0.1,0.3,0.2,0.5,0.3c0.2,0.1,0.3,0.2,0.4,0.3c0.1,0.1,0.3,0.2,0.4,0.4c0.1,0.1,0.2,0.3,0.4,0.4  c0.1,0.1,0.2,0.3,0.3,0.4c0.1,0.2,0.2,0.3,0.3,0.5c0.1,0.2,0.2,0.3,0.3,0.5c0.1,0.2,0.1,0.3,0.2,0.5c0.1,0.2,0.1,0.4,0.1,0.5  c0,0.2,0.1,0.4,0.1,0.6c0,0.2,0,0.1,0,0.6c0,0.5,0,2.2,0,2.2v2.2v2.2v2.2v2.2h-1.5h-1.5h-1.5h-1.5h-1.5v1.8v1.8v1.8v1.8v1.8h1h1h1  h1v-1v-1v-1v-0.9h1h1h1h1v0.5v0.5v0.6c0,0.2,0,0.4,0,0.6s0,0.4,0,0.6c0,0.2-0.1,0.4-0.1,0.6c0,0.2-0.1,0.4-0.1,0.5  c-0.1,0.2-0.1,0.4-0.2,0.5c-0.1,0.2-0.2,0.3-0.3,0.5c-0.1,0.2-0.2,0.3-0.3,0.5c-0.1,0.2-0.2,0.3-0.3,0.4c-0.1,0.1-0.2,0.3-0.4,0.4  c-0.1,0.1-0.3,0.2-0.4,0.4c-0.1,0.1-0.3,0.2-0.4,0.3c-0.2,0.1-0.3,0.2-0.5,0.3s-0.3,0.2-0.5,0.3c-0.2,0.1-0.3,0.1-0.5,0.2  c-0.2,0.1-0.4,0.1-0.6,0.1c-0.2,0-0.4,0.1-0.6,0.1c-0.2,0-0.4,0-0.6,0c-0.2,0-0.4,0-0.6,0c-0.2,0-0.4-0.1-0.6-0.1  c-0.2,0-0.4-0.1-0.5-0.1c-0.2-0.1-0.4-0.1-0.5-0.2c-0.2-0.1-0.3-0.2-0.5-0.3c-0.2-0.1-0.3-0.2-0.5-0.3c-0.2-0.1-0.3-0.2-0.4-0.3  c-0.1-0.1-0.3-0.2-0.4-0.4c-0.1-0.1-0.3-0.3-0.4-0.4c-0.1-0.1-0.2-0.3-0.3-0.4c-0.1-0.1-0.2-0.3-0.3-0.5c-0.1-0.2-0.2-0.3-0.2-0.5  c-0.1-0.2-0.1-0.3-0.2-0.5c-0.1-0.2-0.1-0.4-0.1-0.5c0-0.2-0.1-0.4-0.1-0.6c0-0.2,0,0,0-0.6c0-0.6,0-3.1,0-3.1v-3.1v-3.1v-3.1v-3.1  C141.5,113.2,141.4,110.7,141.5,110.1z"></path>	<path class="st2" d="M156.8,108.5c0-0.7,0-0.5,0.1-0.8c0-0.2,0.1-0.5,0.2-0.7c0.1-0.2,0.2-0.4,0.4-0.7c0.1-0.2,0.3-0.4,0.5-0.6  c0.2-0.2,0.4-0.3,0.6-0.5c0.2-0.1,0.4-0.3,0.7-0.3c0.2-0.1,0.5-0.2,0.7-0.2c0.2,0,0.5-0.1,0.8-0.1c0.3,0,1,0,1,0h1h1h1v0.9v1v1v1  h-1h-1h-1h-1v3.7v3.7v3.7v3.7v3.6v3.7v3.7h-1h-1h-1h-1v-3.7v-3.7v-3.7v-3.7v-3.7v-3.7C156.8,112.2,156.8,109.3,156.8,108.5"></path>	<path class="st2" d="M175,108.5h-1h-1h-1h-1v3.7v3.7v3.7v3.7v3.7v3.7v3.7c0,0-0.5,0-0.8-0.1c-0.2-0.1-0.5-0.1-0.7-0.2  c-0.2-0.1-0.4-0.2-0.7-0.3c-0.2-0.1-0.4-0.3-0.6-0.5c-0.2-0.2-0.4-0.4-0.5-0.6c-0.1-0.2-0.3-0.4-0.4-0.6c-0.1-0.2-0.2-0.5-0.2-0.7  c0-0.2,0,0-0.1-0.8c0-0.7,0-3.7,0-3.7v-3.7v-3.7v-3.7v-3.7v-3.7v-3.7v-3.7v-3.7h1h1h1h1v1.5v1.5v1.5v1.5v1.5h1h1h1h1v0.9v1v1V108.5  z"></path>	<path class="st2" d="M184.2,108.5h-1h-1h-1h-1v1.8v1.8v1.8v1.8v1.8h1h1h1c0,0,0.7,0,1,0c0.3,0,0.5,0,0.8,0.1c0.2,0,0.5,0.1,0.7,0.2  c0.2,0.1,0.4,0.2,0.7,0.3c0.2,0.1,0.4,0.3,0.6,0.5c0.2,0.2,0.3,0.4,0.5,0.6c0.1,0.2,0.3,0.4,0.3,0.6c0.1,0.2,0.2,0.5,0.2,0.7  c0,0.2,0.1,0.4,0.1,0.8c0,0.4,0,1.5,0,1.5v1.5v1.5v1.5c0,0,0,1.1,0,1.5c0,0.3,0,0.4,0,0.6c0,0.2-0.1,0.4-0.1,0.6  c0,0.2-0.1,0.4-0.1,0.5c-0.1,0.2-0.1,0.4-0.2,0.5c-0.1,0.2-0.2,0.3-0.3,0.5c-0.1,0.2-0.2,0.3-0.3,0.5c-0.1,0.2-0.2,0.3-0.3,0.4  c-0.1,0.1-0.2,0.3-0.4,0.4s-0.3,0.2-0.4,0.4c-0.1,0.1-0.3,0.2-0.4,0.3c-0.2,0.1-0.3,0.2-0.5,0.3c-0.2,0.1-0.3,0.2-0.5,0.3  c-0.2,0.1-0.3,0.1-0.5,0.2c-0.2,0.1-0.4,0.1-0.5,0.1c-0.2,0-0.4,0.1-0.6,0.1c-0.2,0-0.4,0-0.6,0c-0.2,0-0.4,0-0.6,0  c-0.2,0-0.4-0.1-0.6-0.1c-0.2,0-0.4-0.1-0.6-0.1c-0.2-0.1-0.3-0.1-0.5-0.2c-0.2-0.1-0.3-0.2-0.5-0.3c-0.2-0.1-0.3-0.2-0.5-0.3  c-0.2-0.1-0.3-0.2-0.4-0.3c-0.1-0.1-0.3-0.2-0.4-0.4s-0.3-0.3-0.4-0.4c-0.1-0.1-0.2-0.3-0.3-0.4c-0.1-0.2-0.2-0.3-0.3-0.5  c-0.1-0.2-0.2-0.3-0.2-0.5c-0.1-0.2-0.2-0.3-0.2-0.5c-0.1-0.2-0.1-0.4-0.1-0.5c0-0.2-0.1-0.4-0.1-0.6c0-0.2,0-0.4,0-0.6  c0-0.2,0-0.4,0-0.6v-0.6V127v-0.5h1h1h1h1v0.9v1v1v1h1h1h1h1v-1.8v-1.8v-1.8v-1.8v-1.8h-1h-1h-1c0,0-0.7,0-1,0  c-0.3,0-0.5,0-0.8-0.1c-0.2,0-0.5-0.1-0.7-0.2c-0.2-0.1-0.4-0.2-0.6-0.4c-0.2-0.1-0.4-0.3-0.6-0.5c-0.2-0.2-0.3-0.4-0.5-0.6  c-0.1-0.2-0.3-0.4-0.4-0.6c-0.1-0.2-0.2-0.5-0.2-0.7c0-0.2,0-0.4-0.1-0.8c0-0.4,0-1.5,0-1.5v-1.5v-1.5v-1.5c0,0,0-1.1,0-1.5  c0-0.3,0-0.4,0-0.6c0-0.2,0-0.4,0.1-0.6c0-0.2,0.1-0.4,0.1-0.5c0.1-0.2,0.1-0.3,0.2-0.5c0.1-0.2,0.2-0.3,0.2-0.5  c0.1-0.2,0.2-0.3,0.3-0.5c0.1-0.2,0.2-0.3,0.3-0.4c0.1-0.1,0.2-0.3,0.4-0.4c0.1-0.1,0.3-0.2,0.4-0.4c0.1-0.1,0.3-0.2,0.4-0.3  c0.2-0.1,0.3-0.2,0.5-0.3c0.2-0.1,0.3-0.2,0.5-0.2s0.3-0.1,0.5-0.2c0.2-0.1,0.4-0.1,0.6-0.1c0.2,0,0.4-0.1,0.6-0.1  c0.2,0,0.4,0,0.6,0c0.2,0,0.4,0,0.6,0c0.2,0,0.4,0.1,0.6,0.1c0.2,0,0.4,0.1,0.5,0.1c0.2,0.1,0.4,0.1,0.5,0.2  c0.2,0.1,0.3,0.2,0.5,0.2c0.2,0.1,0.3,0.2,0.5,0.3c0.2,0.1,0.3,0.2,0.4,0.3c0.1,0.1,0.3,0.2,0.4,0.4c0.1,0.1,0.2,0.3,0.4,0.4  c0.1,0.1,0.2,0.3,0.3,0.4c0.1,0.2,0.2,0.3,0.3,0.5c0.1,0.2,0.2,0.3,0.3,0.5c0.1,0.2,0.1,0.3,0.2,0.5c0.1,0.2,0.1,0.4,0.1,0.5  c0,0.2,0.1,0.4,0.1,0.6c0,0.2,0,0.4,0,0.6c0,0.2,0,0.4,0,0.5v0.5v0.5v0.6h-1h-1h-1h-1v-1v-1v-0.9V108.5z"></path></g></svg>